<?xml version="1.0" encoding="UTF-8" standalone="no"?><!DOCTYPE svg PUBLIC "-//W3C//DTD SVG 1.1//EN" "http://www.w3.org/Graphics/SVG/1.1/DTD/svg11.dtd"><svg width="100%" height="100%" viewBox="0 0 596 492" version="1.1" xmlns="http://www.w3.org/2000/svg" xmlns:xlink="http://www.w3.org/1999/xlink" xml:space="preserve" xmlns:serif="http://www.serif.com/" style="fill-rule:evenodd;clip-rule:evenodd;stroke-linecap:round;stroke-linejoin:round;stroke-miterlimit:1.5;"><path d="M117.662,266.163c65.257,-5.98 129.148,-56.899 175.809,-109.069c58.926,-65.882 90.628,-123.998 69.037,-133.968c-10.675,-4.929 -23.009,-4.333 -57.333,24.611c-0.922,-25.125 -16.771,-45.096 -27.764,-45.112c-30.51,1.9 -48.112,69.806 -22.91,140.901c25.218,71.139 72.727,95.527 139.746,91.494c26.566,-1.599 50.751,-3.24 76.458,2.567c23.025,5.201 43.17,20.036 67.053,37.273" style="fill:none;stroke:#ffb991;stroke-width:5.25px;"/><g id="lingr"><path d="M546.542,440.995l-0.318,-58.846c-0.045,-11.223 19.554,-25.068 41.351,-25.582" style="fill:none;stroke:#ffb991;stroke-width:16.5px;"/><path d="M382.729,469.622c28.498,24.365 73.459,16.278 74.432,-25.447c1.965,-16.67 2.835,-37.582 0.897,-51.885c-3.867,-28.538 -30.31,-35.592 -40.378,-35.845c-22.939,-0.577 -42.787,16.582 -43.857,39.7c-1.051,22.697 17.625,43.822 41.987,43.578c16.765,-0.15 43.219,-13.047 42.861,-41.595" style="fill:none;stroke:#ffb991;stroke-width:16.5px;"/><path d="M8.293,317.657c-0.161,41.171 0.179,103.205 0.179,103.205c1.02,13.728 12.147,18.88 29.219,18.988" style="fill:none;stroke:#ffb991;stroke-width:16.5px;"/><path d="M123.726,357.738c0.03,1.55 0.29,81.35 0.29,81.35" style="fill:none;stroke:#ffb991;stroke-width:16.5px;"/><ellipse cx="122.949" cy="318.438" rx="8.876" ry="8.487" style="fill:#ffb991;"/><path d="M212.555,439.85l1.459,-55.131c0.427,-16.246 19.964,-28.177 37.939,-27.843c18.315,0.341 37.232,12.296 37.393,28.572l0.547,54.401" style="fill:none;stroke:#ffb991;stroke-width:16.5px;"/></g></svg>